<?xml version="1.0" encoding="utf-8"?>
<!-- Generator: Adobe Illustrator 23.0.3, SVG Export Plug-In . SVG Version: 6.00 Build 0)  -->
<svg version="1.1" id="logo-fastory" xmlns="http://www.w3.org/2000/svg" xmlns:xlink="http://www.w3.org/1999/xlink" x="0px"
	 y="0px" viewBox="0 0 54.4 55" style="enable-background:new 0 0 54.4 55;" xml:space="preserve">
<style type="text/css">
	.st0{fill:#FF0000;}
	.st1{fill:#FFFFFF;}
</style>
<path class="st0" d="M26.5,2.8C12.8,2.8,1.7,13.9,1.7,27.5s11.1,24.7,24.7,24.7s24.7-11.1,24.7-24.7C51.2,13.9,40.1,2.8,26.5,2.8z"
	/>
<g>
	<g>
		<path class="st1" d="M53.8,8.9C52.6,11,51.2,11,49.5,11c0,0-2.8,0-7.8,0c-5.7,0-6.1,2.1-8.3,5.7l-0.3,0.7h4.2
			c1.6,0.2,1.9,1.2,1.6,2.6c-0.9,1.4-2.6,2.6-4.2,2.6h-4.8l-16.3,27c-0.9,1.6-3.3,3.1-4.8,3.1c-1.6,0-2.6-1.4-1.4-3.1l16.1-27H6.1
			c-1.4,0-2.1-1.2-1.4-2.6c0.9-1.4,2.6-2.6,4.2-2.6h18l3.5-5.9c0,0,2.8-5.7,10.2-5.7c3.8,0,12.3,0,12.3,0C54.3,5.6,55,6.8,53.8,8.9z
			"/>
	</g>
	<path class="st1" d="M6.6,29c0.2-1.2,1.6-2.2,2.6-2.2h4.3c1.2,0.2,1.9,1,1.6,2.2c-0.2,1.2-1.6,2.2-2.6,2.2H8
		C6.8,31.2,6.4,30,6.6,29z"/>
</g>
</svg>
