<?xml version="1.0" encoding="utf-8"?>
<!-- Generator: Adobe Illustrator 23.0.3, SVG Export Plug-In . SVG Version: 6.00 Build 0)  -->
<svg version="1.1" id="logo-fastory" xmlns="http://www.w3.org/2000/svg" xmlns:xlink="http://www.w3.org/1999/xlink" x="0px"
	 y="0px" viewBox="0 0 53.4 55" style="enable-background:new 0 0 53.4 55;" xml:space="preserve">
<style type="text/css">
	.st0{fill:#D4DBE6;}
</style>
<path class="st0" d="M26.5,2.8C12.8,2.8,1.7,13.9,1.7,27.5c0,13.6,11.1,24.7,24.7,24.7c13.6,0,24.7-11.1,24.7-24.7
	C51.2,13.9,40.1,2.8,26.5,2.8z M41.4,17.5c-0.7,1.2-1.5,1.2-2.5,1.2c0,0-1.6,0-4.5,0c-3.3,0-3.5,1.2-4.8,3.3l-0.2,0.4h2.4
	c0.9,0.1,1.1,0.7,0.9,1.5c-0.5,0.8-1.5,1.5-2.4,1.5h-2.8L18.1,41c-0.5,0.9-1.9,1.8-2.8,1.8c-0.9,0-1.5-0.8-0.8-1.8l9.3-15.6h-10
	c-0.8,0-1.2-0.7-0.8-1.5c0.5-0.8,1.5-1.5,2.4-1.5h10.4l2-3.4c0,0,1.6-3.3,5.9-3.3c2.2,0,7.1,0,7.1,0C41.7,15.6,42.1,16.3,41.4,17.5z
	 M14.1,29.1c0.1-0.7,0.9-1.3,1.5-1.3h2.5c0.7,0.1,1.1,0.6,0.9,1.3c-0.1,0.7-0.9,1.3-1.5,1.3h-2.6C14.2,30.4,14,29.7,14.1,29.1z"/>
</svg>
